<?xml version="1.0" encoding="utf-8"?>
<!-- Svg Vector Icons : http://www.onlinewebfonts.com/icon -->
<!DOCTYPE svg PUBLIC "-//W3C//DTD SVG 1.1//EN" "http://www.w3.org/Graphics/SVG/1.1/DTD/svg11.dtd">
<svg version="1.1" xmlns="http://www.w3.org/2000/svg" xmlns:xlink="http://www.w3.org/1999/xlink" x="0px" y="0px" viewBox="0 0 1000 1000" enable-background="new 0 0 1000 1000" xml:space="preserve">
<metadata> Svg Vector Icons : http://www.onlinewebfonts.com/icon </metadata>
<g><g transform="translate(0.000000,511.000000) scale(0.100000,-0.100000)"><path d="M4783.7,4750.6c-103.4-53.6-195.3-168.5-226-283.4c-42.1-157,17.2-358.1,134-455.7l55.5-47.9l42.1-1872.8c21.1-1028.3,36.4-1874.7,32.6-1880.4c-11.5-11.5-563,86.2-733.4,128.3c-348.5,90-478.7,218.3-428.9,428.9c34.5,157,164.7,248.9,394.5,283.4c208.7,30.6,264.2,49.8,323.6,111.1c68.9,72.8,90,233.6,40.2,312.1c-74.7,113-256.6,137.9-517,70.8c-315.9-80.4-570.6-275.7-664.5-511.3c-36.4-90-44-147.4-46-312.1c0-189.6,3.8-208.7,61.3-327.4c74.7-151.3,187.7-260.4,352.3-342.8c120.6-61.3,438.5-153.2,530.4-153.2c46,0,40.2-7.7-57.4-101.5c-241.3-226-308.3-574.5-158.9-829.1c90-153.2,333.2-323.6,561.1-390.6c44.1-13.4,80.4-30.6,80.4-38.3c0-5.7-38.3-38.3-84.2-70.8c-111.1-78.5-197.2-206.8-233.6-350.4c-70.8-279.6,61.3-522.8,373.4-687.5l137.9-72.8l-78.5-51.7c-181.9-118.7-243.2-333.2-143.6-501.7c42.1-70.8,220.2-214.5,300.6-241.3c15.3-5.7-3.8-42.1-55.5-99.6c-172.3-195.3-137.9-430.8,80.4-566.8l67-42.1v-157c0-185.7,26.8-279.6,78.5-279.6c47.9,0,74.7,105.3,74.7,287.2v145.5l88.1,72.8c47.9,40.2,103.4,101.5,124.5,134c72.8,120.6,28.7,333.2-93.8,436.6l-59.4,49.8l111.1,68.9c128.3,78.5,245.1,199.1,262.3,270c38.3,149.4-44,331.3-193.4,425.1l-80.4,49.8l126.4,61.3c164.7,80.4,293,195.3,354.3,319.8c40.2,80.4,49.8,126.4,49.8,243.2c-1.9,210.6-86.2,377.2-248.9,490.2c-90,63.2-93.8,78.5-23,95.7c105.3,24.9,360,160.9,450,239.4c174.2,153.2,241.3,338.9,204.9,568.7c-26.8,166.6-97.6,298.7-220.2,415.5l-103.4,95.7l176.2,36.4c536.2,107.2,817.6,379.2,817.6,788.9c0,413.6-262.3,716.2-723.8,834.9c-254.7,65.1-436.6,42.1-509.4-63.2c-42.1-59.3-38.3-203,7.6-277.7c53.6-90,116.8-122.5,275.8-141.7c243.2-30.6,384.9-99.6,446.2-214.5c42.1-82.3,42.1-239.4,0-302.6c-46-70.8-224.1-160.8-406-206.8c-185.7-47.9-718.1-141.7-731.5-130.2c-7.7,9.6,26.8,1792.3,63.2,3247.7l13.4,507.4l57.5,47.9c124.5,105.3,178.1,321.7,120.6,486.4C5339,4760.2,5030.7,4878.9,4783.7,4750.6z M4850.7-756.6c5.7-266.2,7.7-488.3,3.8-492.1c-24.9-28.7-438.5,151.3-551.5,237.5c-114.9,86.2-153.2,166.6-139.8,293c15.3,145.5,88.1,245.1,227.9,317.9c116.8,59.3,319.8,122.5,400.2,124.5l49.8,1.9L4850.7-756.6z M5448.1-335.4c248.9-78.5,371.5-203,388.7-396.4c11.5-120.6-38.3-203-181.9-300.6c-105.3-72.8-337-176.2-471.1-210.6l-55.5-13.4l11.5,160.8c7.7,88.1,13.4,310.2,13.4,494.1v333.2l82.4-13.4C5279.6-289.4,5375.4-312.4,5448.1-335.4z M4871.8-1857.7c7.7-135.9,13.4-333.2,13.4-440.4v-195.3l-59.4,21.1c-113,38.3-293,176.2-337,254.7c-86.2,153.2-42.1,371.5,95.7,476.8c65.1,49.8,218.3,124.5,254.7,126.4C4852.6-1614.5,4864.1-1700.7,4871.8-1857.7z M5239.4-1645.1c210.6-88.1,316-218.3,316-390.6c0-178.1-130.2-327.4-367.6-427l-72.8-30.6v206.8c0,287.2,23,672.1,38.3,672.1C5160.9-1614.5,5199.2-1627.9,5239.4-1645.1z M4892.8-2822.8c15.3-74.7,15.3-515.1,0-515.1c-24.9,0-180,118.7-226,172.3c-91.9,111.1-51.7,250.8,99.6,346.6c47.9,30.7,93.8,55.5,101.5,55.5C4873.7-2763.4,4885.2-2790.2,4892.8-2822.8z M5344.7-2926.2c21.1-34.5,38.3-84.3,38.3-109.2c0-70.8-74.7-170.4-181.9-241.3l-95.8-65.1l-5.7,227.9c-3.8,124.5,0,254.7,5.7,289.1l11.5,63.2l95.7-51.7C5264.3-2841.9,5323.7-2893.6,5344.7-2926.2z M4921.5-3921.9l1.9-172.3l-86.2,90c-72.8,74.7-86.2,101.5-86.2,166.6c0,97.6,28.7,170.4,91.9,237.4l51.7,55.5l13.4-103.4C4913.9-3703.6,4919.6-3826.2,4921.5-3921.9z M5185.8-3642.4c49.8-72.8,72.7-172.3,55.5-237.4c-5.7-24.9-45.9-84.3-86.2-130.2l-76.6-84.3l-1.9,174.2c0,218.3,17.2,356.2,46,346.6C5134.1-3577.3,5162.8-3607.9,5185.8-3642.4z"/><path d="M3343.7,4005.7c-63.2-13.4-256.6-76.6-430.8-139.8c-779.4-281.5-712.3-270-1790.4-291.1c-549.6-11.5-909.6-24.9-955.5-38.3c-72.8-21.1-72.8-23-61.3-99.6c28.7-181.9,160.8-354.2,331.3-430.8c103.4-47.9,331.3-82.3,448.1-67l70.8,7.7l21.1-99.6c28.7-128.3,63.2-191.5,143.6-264.2c134-116.8,388.7-147.5,587.9-70.9c23,7.7,34.5-1.9,42.1-44c17.2-88.1,128.3-216.4,233.6-270c128.3-67,335.1-68.9,484.5-1.9c57.4,24.9,107.2,36.4,116.8,26.8c7.7-9.6,46-57.4,84.3-107.2c162.8-204.9,415.5-243.2,691.3-103.4l137.9,70.8l86.2-47.9c181.9-101.5,471.1-132.1,764-80.4l124.5,21.1l-5.7,564.9c-3.8,310.2-11.5,578.3-15.3,595.5c-5.7,21.1-53.6,36.4-178.1,53.6c-285.3,40.2-484.5,162.8-507.4,314c-5.8,34.5-15.3,126.4-21.1,204.9c-15.3,180-53.6,264.2-136,298.7C3533.3,4040.2,3495,4040.2,3343.7,4005.7z"/><path d="M6386.4,4007.6c-78.5-34.5-116.8-122.5-132.1-298.7c-19.2-227.9-26.8-264.2-80.4-325.5c-76.6-91.9-222.1-155.1-436.6-191.5l-191.5-32.6l-15.3-570.6c-9.6-312.1-11.5-580.2-5.8-593.6c3.8-13.4,72.8-32.6,155.1-46c304.5-44,553.4-15.3,735.3,84.3l82.4,47.9l141.7-68.9c197.2-99.6,365.8-111.1,515.1-38.3c67,32.6,130.2,86.2,176.2,141.7c38.3,49.8,76.6,97.7,84.2,107.2c9.6,9.6,59.4-1.9,116.8-26.8c149.3-67,356.2-65.1,484.4,1.9c105.3,53.6,216.4,181.9,233.6,270c7.6,42.1,19.2,51.7,42.1,44c105.3-42.1,243.2-53.6,354.3-30.6c243.2,49.8,329.3,143.6,384.9,411.7c9.6,49.8,17.2,53.6,74.7,44c103.4-17.2,352.3,21.1,457.7,68.9c170.4,76.6,302.5,248.9,331.3,430.8c11.5,72.8,9.6,76.6-51.7,97.7c-44.1,17.2-346.6,28.7-955.5,40.2C7857.1,3594,7859,3594,7317.1,3785.5C6623.9,4030.6,6503.2,4059.3,6386.4,4007.6z"/></g></g>
</svg>