<?xml version="1.0" encoding="utf-8"?>
<!-- Svg Vector Icons : http://www.onlinewebfonts.com/icon -->
<!DOCTYPE svg PUBLIC "-//W3C//DTD SVG 1.1//EN" "http://www.w3.org/Graphics/SVG/1.1/DTD/svg11.dtd">
<svg version="1.1" xmlns="http://www.w3.org/2000/svg" xmlns:xlink="http://www.w3.org/1999/xlink" x="0px" y="0px" viewBox="0 0 1000 1000" enable-background="new 0 0 1000 1000" xml:space="preserve">
<metadata> Svg Vector Icons : http://www.onlinewebfonts.com/icon </metadata>
<g><g transform="translate(0.000000,512.000000) scale(0.100000,-0.100000)"><path d="M7840.4,4989.2c-78.5-38.3-291-289.1-432.6-505.4c-210.6-325.4-354.1-668.1-465.2-1108.3c-63.2-250.8-160.8-817.4-160.8-932.2c0-112.9-15.3-116.8-440.3-160.8c-708.3-72.7-1142.8-155-1550.5-296.7c-805.9-281.4-1374.4-849.9-1655.8-1655.8c-158.9-459.4-214.4-765.7-327.3-1843.4c-9.6-90-19.1-114.9-53.6-126.3c-21.1-9.6-179.9-34.5-348.4-57.4c-580-78.5-1033.7-206.7-1433.8-402c-268-132.1-436.4-243.1-652.8-425c-208.6-176.1-258.4-287.1-191.4-417.3c82.3-158.9,285.2-170.4,421.1-23c32.5,32.5,65.1,59.3,76.6,59.3c11.5,0,254.6-233.5,539.8-518.7c354.1-354.1,530.2-516.8,549.4-509.2c28.7,11.5,166.5,195.3,235.5,315.8l34.5,61.3l-465.2,469c-392.4,392.4-463.2,472.8-444.1,495.8c21.1,26.8,417.3,202.9,453.7,202.9c9.6,0,160.8-143.6,336.9-319.7c279.5-279.5,325.4-317.8,348.4-292.9c30.6,32.5,126.3,388.6,126.3,470.9c0,40.2-26.8,82.3-109.1,164.6c-67,68.9-103.4,116.8-91.9,128.3c28.7,24.9,568.5,101.5,587.7,82.3c34.5-34.5-107.2-798.2-208.7-1123.7c-118.7-377.1-329.2-750.4-578.1-1027.9c-134-151.2-157-224-105.3-331.2c61.3-130.2,193.3-176.1,325.4-112.9c128.2,61.3,449.8,490.1,616.4,821.2c204.8,413.5,380.9,1073.9,436.5,1650.1c5.7,76.6,23,151.2,34.5,166.5c15.3,21.1,107.2,38.3,317.8,59.3c717.8,72.7,1169.6,151.2,1537.1,269.9C6019.9-1486.7,6607.6-899,6904.3,17.9C7023,385.4,7101.5,837.2,7174.2,1555c21.1,201,38.3,302.4,57.4,317.8c13.4,9.6,118.7,30.6,233.5,44c547.5,61.3,1150.4,220.1,1535.2,405.8c346.5,164.6,790.6,488.1,869.1,633.6c67,126.3,21.1,268-111,329.3c-107.2,51.7-180,28.7-331.2-105.3c-277.6-248.9-650.8-459.4-1027.9-578.1C8072,2500.7,7310.1,2359,7275.7,2393.5c-24.9,24.9,86.1,731.2,114.9,731.2c5.7,0,86.1-72.7,178-162.7c90-90,178-162.7,193.3-162.7c42.1,0,402,105.3,451.8,132.1c23,11.5,42.1,28.7,42.1,34.4c0,5.7-155,168.5-344.6,359.9c-241.2,243.1-344.6,359.9-344.6,390.5c0,24.9,38.3,124.4,86.1,224c70.8,147.4,93.8,179.9,128.3,179.9c30.6,0,178-135.9,493.9-449.8c352.2-352.2,463.3-449.8,499.6-449.8c88.1,0,342.7,206.7,342.7,275.7c0,26.8-176.1,216.3-511.1,551.3c-455.6,455.6-509.2,516.8-488.1,547.5c55.5,76.6,82.3,162.7,68.9,220.1C8148.6,4987.3,7995.4,5065.7,7840.4,4989.2z M6705.2,1721.6c0-55.5-11.5-114.9-23-132.1c-17.2-19.1-91.9-36.4-233.5-51.7c-116.8-13.4-218.2-28.7-227.8-34.5c-9.6-5.7,78.5-107.2,195.3-225.9c116.8-116.8,212.5-227.8,212.5-245c0-46-95.7-557-107.2-566.6c-3.8-5.8-218.2,201-476.7,455.6l-467.1,467.1l-76.6-13.4c-101.5-15.3-402-116.8-428.8-143.6c-15.3-15.3,155-199.1,626-670l648.9-648.9l-24.9-65.1c-36.4-88-189.5-356-214.4-371.3c-11.5-7.7-352.2,319.7-759.9,727.4c-513,511.1-752.3,738.9-781,738.9c-45.9,0-331.2-262.3-331.2-306.3c0-15.3,336.9-365.6,746.6-775.3C5394-548.7,5729-895.2,5729-908.6c0-26.8-178-151.2-323.5-223.9l-103.4-53.6l-675.7,675.7c-470.9,470.9-683.4,670-696.8,656.6c-17.2-17.2-116.8-279.5-162.7-426.9c-11.5-38.3,44-101.5,499.6-559c325.4-325.4,507.3-520.7,495.8-532.2c-17.2-15.3-490-116.8-549.4-116.8c-11.5,0-145.5,122.5-294.8,271.8c-185.7,183.8-277.6,262.3-285.2,243.1c-5.7-15.3-24.9-151.2-44-300.5c-24.9-185.7-44-281.4-63.2-292.9c-15.3-9.6-72.7-17.2-130.2-17.2h-103.4l13.4,178C3340-945,3430-387.9,3521.9-52.9c126.3,457.5,292.9,761.9,570.4,1045.2c317.8,323.5,645.1,499.6,1196.4,639.3c289.1,72.7,1060.5,183.8,1317,189.5l99.5,1.9V1721.6z"/></g></g>
</svg>