<?xml version="1.0" encoding="utf-8"?>
<!-- Svg Vector Icons : http://www.onlinewebfonts.com/icon -->
<!DOCTYPE svg PUBLIC "-//W3C//DTD SVG 1.1//EN" "http://www.w3.org/Graphics/SVG/1.1/DTD/svg11.dtd">
<svg version="1.1" xmlns="http://www.w3.org/2000/svg" xmlns:xlink="http://www.w3.org/1999/xlink" x="0px" y="0px" viewBox="0 0 1000 1000" enable-background="new 0 0 1000 1000" xml:space="preserve">
<metadata> Svg Vector Icons : http://www.onlinewebfonts.com/icon </metadata>
<g><g transform="translate(0.000000,511.000000) scale(0.100000,-0.100000)"><path d="M4461.2,4783.9c-791.4-88.1-1462-387.1-1937.2-862.3c-367.9-366-595.9-797.1-703.2-1331.7c-42.2-210.8-47.9-768.4-9.6-984.9c101.6-578.7,318.1-1109.5,678.3-1661.3l115-176.3l84.3-666.8c46-366,84.3-668.7,84.3-670.7c0,0-74.7-42.2-166.7-92c-93.9-49.8-212.7-116.9-268.3-147.5l-99.6-55.6l-134.1,266.4c-161,316.2-241.4,404.3-417.7,456c-90.1,26.8-128.4,28.7-210.8,11.5c-103.5-21.1-1092.2-538.4-1211-632.3c-34.5-28.7-86.2-95.8-115-147.5c-40.2-78.6-49.8-120.7-49.8-239.5v-143.7l484.8-938.9c279.8-542.3,511.6-965.8,546.1-1002.1c122.6-130.3,329.6-187.8,484.8-138c40.2,13.4,308.5,149.5,592.1,300.8c666.8,354.5,737.7,423.5,737.7,718.6c0,92-17.2,139.9-124.6,358.3c-130.3,266.3-139.9,302.7-105.4,480.9c36.4,191.6,101.6,298.9,318.1,519.3c138,138,218.4,237.6,249.1,306.6c113.1,241.4,381.3,530.8,634.3,680.2c341.1,203.1,659.2,285.5,1098,283.6c321.9,0,504-32.6,762.6-134.1c404.3-159,772.2-488.6,933.2-833.5c26.8-61.3,109.2-164.8,216.5-272.1c233.8-239.5,275.9-327.7,310.4-645.8l21.1-191.6l-107.3-212.7c-95.8-193.5-105.4-222.3-105.4-341.1c0-147.5,59.4-295.1,153.3-373.7c30.7-24.9,302.8-176.3,603.6-337.2c502-266.3,559.5-293.2,668.8-300.8c145.6-13.4,277.8,38.3,381.3,143.7c46,47.9,222.3,364.1,532.7,961.9c254.9,490.5,473.3,923.6,488.6,965.7c34.5,95.8,34.5,191.6-1.9,312.4c-51.7,176.3-118.8,226.1-716.7,544.2c-613.2,325.7-676.4,346.8-850.8,297c-172.5-49.8-256.8-141.8-406.2-435c-69-136-134.1-247.2-143.7-247.2c-19.2,0-496.3,260.6-521.2,285.5c-5.7,5.8,23,300.8,69,655.3l80.5,643.8l116.9,180.1c444.6,689.8,676.4,1349,709,2006.2c67.1,1429.5-885.3,2529.3-2427.8,2801.4c-191.6,34.5-331.5,44.1-699.4,47.9C4829.1,4799.2,4549.3,4793.5,4461.2,4783.9z M3656.4,2934.8c149.5-44.1,249.1-109.2,375.6-243.3c132.2-141.8,237.6-331.5,297-540.4c57.5-203.1,61.3-590.2,7.7-766.5c-130.3-429.2-435-661.1-873.8-661.1c-584.4,0-948.5,435-912.1,1092.2c17.2,352.6,130.3,645.8,331.5,862.3c128.4,139.9,224.2,205,369.8,251C3384.3,2973.1,3522.3,2973.1,3656.4,2934.8z M6722.3,2934.8c149.5-44.1,249.1-109.2,375.6-243.3c425.4-456.1,469.5-1293.4,88.1-1701.6c-170.5-182-377.5-266.3-657.2-266.3s-486.7,84.3-657.2,266.3c-302.8,323.8-346.8,948.5-99.6,1439c72.8,145.6,245.3,343,364.1,417.7C6312.2,2957.8,6530.6,2990.3,6722.3,2934.8z"/><path d="M4677.7-1163.9c-417.7-74.7-735.8-237.6-1015.6-515.4C3263.6-2076,3087.3-2624,3186.9-3149c128.4-676.4,647.7-1203.4,1360.5-1381.6c241.4-61.3,653.4-61.3,894.8,0c659.2,164.8,1142.1,609.3,1327.9,1220.6c46,153.3,51.7,203.1,51.7,450.3c0,247.2-5.8,297-51.7,450.3c-197.4,653.4-756.9,1132.5-1454.4,1245.5C5105-1129.4,4863.6-1129.4,4677.7-1163.9z M4468.9-1759.8c59.4-26.8,124.6-122.6,124.6-180.1c0-13.4-13.4-51.7-30.7-86.2c-36.4-78.6-139.9-132.2-218.4-115c-70.9,15.3-147.5,92-162.9,162.9c-17.2,76.6,36.4,182,111.1,218.4C4369.2-1721.5,4390.3-1721.5,4468.9-1759.8z M5082-1759.8c59.4-26.8,124.6-122.6,124.6-180.1c0-13.4-13.4-51.7-30.6-86.2c-36.4-78.6-139.9-132.2-218.5-115c-70.9,15.3-147.5,92-162.9,162.9c-17.2,76.6,36.4,182,111.1,218.4C4982.4-1721.5,5003.5-1721.5,5082-1759.8z M5695.2-1759.8c59.4-26.8,124.6-122.6,124.6-180.1c0-13.4-13.4-51.7-30.7-86.2c-36.4-78.6-139.9-132.2-218.4-115c-70.9,15.3-147.5,92-162.9,162.9c-17.3,76.6,36.4,182,111.1,218.4C5595.6-1721.5,5616.6-1721.5,5695.2-1759.8z M3855.7-2373c59.4-26.8,124.6-122.6,124.6-180.1c0-13.4-13.4-51.7-30.7-86.2c-36.4-78.6-139.9-132.2-218.4-115c-70.9,15.3-147.5,92-162.9,162.9c-17.2,76.7,36.4,182,111.1,218.4C3756-2334.7,3777.1-2334.7,3855.7-2373z M4468.9-2373c59.4-26.8,124.6-122.6,124.6-180.1c0-13.4-13.4-51.7-30.7-86.2c-36.4-78.6-139.9-132.2-218.4-115c-70.9,15.3-147.5,92-162.9,162.9c-17.2,76.7,36.4,182,111.1,218.4C4369.2-2334.7,4390.3-2334.7,4468.9-2373z M5082-2373c59.4-26.8,124.6-122.6,124.6-180.1c0-13.4-13.4-51.7-30.6-86.2c-36.4-78.6-139.9-132.2-218.5-115c-70.9,15.3-147.5,92-162.9,162.9c-17.2,76.7,36.4,182,111.1,218.4C4982.4-2334.7,5003.5-2334.7,5082-2373z M5695.2-2373c59.4-26.8,124.6-122.6,124.6-180.1c0-13.4-13.4-51.7-30.7-86.2c-36.4-78.6-139.9-132.2-218.4-115c-70.9,15.3-147.5,92-162.9,162.9c-17.3,76.7,36.4,182,111.1,218.4C5595.6-2334.7,5616.6-2334.7,5695.2-2373z M6308.4-2373c59.4-26.8,124.6-122.6,124.6-180.1c0-13.4-13.4-51.7-30.6-86.2c-36.4-78.6-139.9-132.2-218.5-115c-70.9,15.3-147.5,92-162.9,162.9c-17.3,76.7,36.4,182,111.1,218.4C6208.7-2334.7,6229.8-2334.7,6308.4-2373z M3855.7-2986.2c59.4-26.8,124.6-122.6,124.6-180.1c0-13.4-13.4-51.7-30.7-86.2c-36.4-78.6-139.9-132.2-218.4-115c-70.9,15.3-147.5,92-162.9,162.9c-17.2,76.7,36.4,182,111.1,218.4C3756-2947.8,3777.1-2947.8,3855.7-2986.2z M4468.9-2986.2c59.4-26.8,124.6-122.6,124.6-180.1c0-13.4-13.4-51.7-30.7-86.2c-36.4-78.6-139.9-132.2-218.4-115c-70.9,15.3-147.5,92-162.9,162.9c-17.2,76.7,36.4,182,111.1,218.4C4369.2-2947.8,4390.3-2947.8,4468.9-2986.2z M5082-2986.2c59.4-26.8,124.6-122.6,124.6-180.1c0-13.4-13.4-51.7-30.6-86.2c-36.4-78.6-139.9-132.2-218.5-115c-70.9,15.3-147.5,92-162.9,162.9c-17.2,76.7,36.4,182,111.1,218.4C4982.4-2947.8,5003.5-2947.8,5082-2986.2z M5695.2-2986.2c59.4-26.8,124.6-122.6,124.6-180.1c0-13.4-13.4-51.7-30.7-86.2c-36.4-78.6-139.9-132.2-218.4-115c-70.9,15.3-147.5,92-162.9,162.9c-17.3,76.7,36.4,182,111.1,218.4C5595.6-2947.8,5616.6-2947.8,5695.2-2986.2z M6308.4-2986.2c59.4-26.8,124.6-122.6,124.6-180.1c0-13.4-13.4-51.7-30.6-86.2c-36.4-78.6-139.9-132.2-218.5-115c-70.9,15.3-147.5,92-162.9,162.9c-17.3,76.7,36.4,182,111.1,218.4C6208.7-2947.8,6229.8-2947.8,6308.4-2986.2z M4468.9-3599.3c59.4-26.8,124.6-122.6,124.6-180.1c0-13.4-13.4-51.7-30.7-86.2c-36.4-78.6-139.9-132.2-218.4-115c-70.9,15.3-147.5,92-162.9,162.9c-17.2,76.7,36.4,182,111.1,218.5C4369.2-3561,4390.3-3561,4468.9-3599.3z M5082-3599.3c59.4-26.8,124.6-122.6,124.6-180.1c0-13.4-13.4-51.7-30.6-86.2c-36.4-78.6-139.9-132.2-218.5-115c-70.9,15.3-147.5,92-162.9,162.9c-17.2,76.7,36.4,182,111.1,218.5C4982.4-3561,5003.5-3561,5082-3599.3z M5695.2-3599.3c59.4-26.8,124.6-122.6,124.6-180.1c0-13.4-13.4-51.7-30.7-86.2c-36.4-78.6-139.9-132.2-218.4-115c-70.9,15.3-147.5,92-162.9,162.9c-17.3,76.7,36.4,182,111.1,218.5C5595.6-3561,5616.6-3561,5695.2-3599.3z"/></g></g>
</svg>