<?xml version="1.0" encoding="utf-8"?>
<!-- Svg Vector Icons : http://www.onlinewebfonts.com/icon -->
<!DOCTYPE svg PUBLIC "-//W3C//DTD SVG 1.1//EN" "http://www.w3.org/Graphics/SVG/1.1/DTD/svg11.dtd">
<svg version="1.1" xmlns="http://www.w3.org/2000/svg" xmlns:xlink="http://www.w3.org/1999/xlink" x="0px" y="0px" viewBox="0 0 1000 1000" enable-background="new 0 0 1000 1000" xml:space="preserve">
<metadata> Svg Vector Icons : http://www.onlinewebfonts.com/icon </metadata>
<g><path d="M908.6,354.6h-35.4c-9.7,0-10-6.3-10.3-9.5C844.4,170.4,696.2,33.9,516.6,33.9h-33.3c-178.2,0-325.6,134.5-345.9,307.4c-0.5,4.4-0.8,13.4-8.9,13.4H91.4C67,354.6,10,380.3,10,510V578c0,96.2,57,118.4,81.4,118.4h118.3c24.4,0,44.4-20,44.4-44.4V399c0-24.4-20-44.4-44.4-44.4c0,0-5.6-0.5-4.2-10.4c19.5-136.6,136.1-242.4,277.8-242.4h33.3c140.8,0,257.6,104.3,277.4,239.7c0.6,4.4,3,13.2-3.8,13.2c-24.4,0-44.4,20-44.4,44.4V652c0,24.4,20,44.4,44.4,44.4h22.2c6.1,0,5.1,4.9,4.5,7.3c-18.1,81.7-58.7,174.4-149.9,174.4h-67.6c-6.9,0-8.6-5.1-9.9-7.4c-10.9-20-32.2-33.6-56.6-33.6h-62.3c-35.6,0-64.5,28.9-64.5,64.5c0,35.6,28.9,64.5,64.5,64.5h62.3c24.7,0,46.2-13.9,57-34.4c0.9-1.8,1.7-5.5,9-5.5h68c62,0,144.9-30.8,188-177.5c4.6-15.6,8.3-31.2,11.4-46.2c0.4-2.1,0.7-6.2,7.1-6.2h35c24.4,0,81.4-22.2,81.4-118.4V510C990,382.1,933,354.6,908.6,354.6z"/></g>
</svg>