<?xml version="1.0" encoding="utf-8"?>
<!-- Svg Vector Icons : http://www.onlinewebfonts.com/icon -->
<!DOCTYPE svg PUBLIC "-//W3C//DTD SVG 1.1//EN" "http://www.w3.org/Graphics/SVG/1.1/DTD/svg11.dtd">
<svg version="1.1" xmlns="http://www.w3.org/2000/svg" xmlns:xlink="http://www.w3.org/1999/xlink" x="0px" y="0px" viewBox="0 0 1000 1000" enable-background="new 0 0 1000 1000" xml:space="preserve">
<metadata> Svg Vector Icons : http://www.onlinewebfonts.com/icon </metadata>
<g><g transform="translate(0.000000,511.000000) scale(0.100000,-0.100000)"><path d="M7552.1,4530.2l-479.8-479.8l414.5-412.4l412.4-414.5l479.8,479.8c361.4,363.4,479.8,494.1,479.8,530.8c0,36.8-91.9,142.9-363.4,412.4c-269.5,271.5-375.7,363.4-412.4,363.4S7915.5,4891.6,7552.1,4530.2z"/><path d="M5485.9,2749.9C4434.4,1698.4,4285.4,1543.3,4285.4,1488.1c0-51,69.4-130.7,496.1-555.3c424.7-426.7,504.3-496.1,555.3-496.1c53.1,0,128.6,67.4,541,479.8l477.8,477.7l-34.7,73.5c-42.9,87.8-44.9,277.7-6.1,353.2c38.8,73.5,132.7,159.3,202.1,185.8c89.8,34.7,243,26.5,324.6-16.3l75.5-36.8l438.9,441c334.8,336.9,441,455.3,441,494.1c0,71.5-988.2,1059.6-1061.7,1059.6C6696.6,3948.3,6425.1,3687,5485.9,2749.9z"/><path d="M6578.2,1904.6c-79.6-22.5-163.3-120.5-181.7-212.3c-26.6-142.9,59.2-273.6,208.2-314.4c98-26.5,198,6.1,271.5,91.9c118.4,132.7,73.5,336.9-89.8,416.5C6694.6,1931.2,6674.2,1933.2,6578.2,1904.6z"/><path d="M7096.8,1767.8c-20.4-22.5-34.7-71.5-34.7-118.4c0-106.2-73.5-247-169.5-322.6c-61.2-49-102.1-63.3-198-69.4c-173.6-12.2-191.9-47-79.6-140.9c249.1-206.2,467.6-492,581.9-759.5C7776.7-986.4,6692.5-2421.7,5100-2421.7c-473.7,0-922.8,134.7-1325.1,394l-130.7,85.8l586,6.1l586,4.1v336.9v336.9H2978.7H1141.2v-336.9v-336.9h639h637L2499-2046c173.5-243,653.3-653.3,926.9-792.2l67.4-36.7l-175.6-98c-275.6-155.2-490-316.5-737-561.5c-198-194-459.4-506.3-459.4-547.2c0-8.2,1308.7-14.3,2909.4-14.3c2060,0,2909.4,6.1,2909.4,22.5c0,42.9-232.8,330.8-416.5,514.5c-210.3,212.3-455.3,402.2-690.1,539c-87.8,51-159.2,98-159.2,106.2c0,6.1,67.4,51,149,95.9c753.4,430.8,1292.4,1171.9,1433.2,1976.3c38.8,230.7,38.8,669.6,0,896.3c-83.7,483.9-314.4,955.5-659.5,1349.5c-132.7,151.1-408.3,400.2-445.1,400.2C7139.6,1804.6,7115.2,1788.3,7096.8,1767.8z"/><path d="M3932.2,910.3c-198-198-238.9-249.1-238.9-300.1c0-53.1,53.1-114.3,353.2-414.5c298.1-298.1,361.4-351.2,412.4-351.2s102.1,40.8,302.2,240.9L5000,326.4l-404.2,412.4c-222.5,226.6-410.4,412.4-414.5,412.4C4177.2,1151.3,4064.9,1043,3932.2,910.3z"/><path d="M2104.9-4549.1l6.1-230.7l2915.5-6.1L7940-4790v234.8v234.8H5020.4H2098.8L2104.9-4549.1z"/></g></g>
</svg>