<?xml version="1.0" encoding="utf-8"?>
<!-- Svg Vector Icons : http://www.onlinewebfonts.com/icon -->
<!DOCTYPE svg PUBLIC "-//W3C//DTD SVG 1.1//EN" "http://www.w3.org/Graphics/SVG/1.1/DTD/svg11.dtd">
<svg version="1.1" xmlns="http://www.w3.org/2000/svg" xmlns:xlink="http://www.w3.org/1999/xlink" x="0px" y="0px" viewBox="0 0 1000 1000" enable-background="new 0 0 1000 1000" xml:space="preserve">
<metadata> Svg Vector Icons : http://www.onlinewebfonts.com/icon </metadata>
<g><g transform="translate(0.000000,511.000000) scale(0.100000,-0.100000)"><path d="M3265.4,4661.3C3173.7,4608.9,220,2011.1,158.9,1930.3c-24-32.7-45.8-102.6-52.4-155c-24-209.6-65.5-168.1,1604.6-1633C2861.5-868.5,3263.2-1206.8,3330.9-1230.8c128.8-41.5,266.3-15.3,364.6,69.8c133.2,117.9,137.5,141.9,137.5,844.9V317h104.8c122.3,0,548-50.2,825.2-98.2C5625.3,68.1,6433.1-226.6,6992-597.7c279.5-185.6,569.8-469.4,729.2-709.5c617.8-936.6,107-2017.2-1285.9-2718c-194.3-98.2-222.7-131-222.7-259.8c0-117.9,82.9-200.8,200.8-200.8c159.4,0,960.6,349.3,1429.9,622.2c1146.1,670.2,1862.2,1554.4,2028.1,2501.8c50.2,292.5,32.7,742.3-41.5,1023.9c-451.9,1722.5-2678.7,3091.3-5643.3,3471.1c-183.4,24-338.4,43.7-342.7,43.7c-6.5,0-10.9,277.3-10.9,615.6c0,580.7-2.2,620-45.8,709.5C3697.7,4685.4,3446.6,4761.8,3265.4,4661.3z"/></g></g>
</svg>