<?xml version="1.0" encoding="utf-8"?>
<!-- Svg Vector Icons : http://www.onlinewebfonts.com/icon -->
<!DOCTYPE svg PUBLIC "-//W3C//DTD SVG 1.1//EN" "http://www.w3.org/Graphics/SVG/1.1/DTD/svg11.dtd">
<svg version="1.1" xmlns="http://www.w3.org/2000/svg" xmlns:xlink="http://www.w3.org/1999/xlink" x="0px" y="0px" viewBox="0 0 1000 1000" enable-background="new 0 0 1000 1000" xml:space="preserve">
<metadata> Svg Vector Icons : http://www.onlinewebfonts.com/icon </metadata>
<g><g transform="translate(0.000000,511.000000) scale(0.100000,-0.100000)"><path d="M4110.9,4272.5c-499.4-109.1-901.3-478.4-1039.1-951c-30.6-103.3-47.8-227.7-55.5-405.7l-13.4-258.3h-977.9c-537.7,0-1042.9-9.6-1121.4-19.1c-378.9-49.8-694.6-333-775-698.5c-26.8-112.9-28.7-275.6-24.9-1064l5.7-928.1l74.6-151.2C308.6-456,507.6-622.5,767.8-695.2c116.7-32.5,233.5-34.4,1689.7-34.4h1565.3v239.2v239.2h975.9h975.9v-239.2v-239.2h1555.7c1695.4,0,1691.6,0,1896.4,111c199,107.1,384.6,342.5,443.9,566.4c40.2,149.3,38.3,1827.5-1.9,1999.7c-86.1,363.6-398,641-775,690.8c-78.5,9.6-583.7,19.1-1121.4,19.1h-975.9l-1.9,235.4c0,415.2-124.4,727.2-398,998.9c-174.1,174.1-334.9,275.6-554.9,348.3l-153.1,51.7l-822.8,5.7C4388.4,4301.2,4220,4295.4,4110.9,4272.5z M5802.5,3344.4c212.4-95.7,304.3-283.2,275.6-566.4l-13.4-120.5H4996.9H3927.2v120.5c0,271.7,51.7,409.5,193.3,514.8c112.9,84.2,164.6,89.9,897.5,89.9C5680,3384.6,5720.2,3382.6,5802.5,3344.4z"/><path d="M100-2566.7v-1511.7h4898.8h4898.8v1511.7c0,832.4-3.8,1511.7-9.6,1511.7c-3.8,0-47.9-24.9-97.6-57.4c-130.1-82.3-340.6-164.6-509-199c-128.2-26.8-359.7-30.6-1728-30.6H5974.7v-239.2v-239.2h-975.9h-975.9v239.2v239.2H2444.2c-1368.2,0-1599.8,3.8-1728,30.6c-168.4,34.4-378.9,116.7-509,199c-49.8,32.5-93.8,57.4-97.6,57.4C103.8-1055,100-1734.3,100-2566.7z"/></g></g>
</svg>